<mxfile host="app.diagrams.net" modified="2024-01-12T12:20:56.104Z" agent="Mozilla/5.0 (Windows NT 10.0; Win64; x64) AppleWebKit/537.36 (KHTML, like Gecko) Chrome/120.0.0.0 Safari/537.36" etag="Oi-4btVMMhsehAFlFLIz" version="22.1.18" type="github">
  <diagram name="第 1 页" id="Y1lCG-zPHO0m-EILFMJA">
    <mxGraphModel dx="2074" dy="2359" grid="1" gridSize="10" guides="1" tooltips="1" connect="1" arrows="1" fold="1" page="1" pageScale="1" pageWidth="827" pageHeight="1169" math="0" shadow="0">
      <root>
        <mxCell id="0" />
        <mxCell id="1" parent="0" />
        <mxCell id="kQcq3hz9DepAYZpIc8k_-28" value="QuestState_1" style="swimlane;fontStyle=0;childLayout=stackLayout;horizontal=1;startSize=30;horizontalStack=0;resizeParent=1;resizeParentMax=0;resizeLast=0;collapsible=1;marginBottom=0;whiteSpace=wrap;html=1;" parent="1" vertex="1">
          <mxGeometry x="273.5" y="465" width="140" height="120" as="geometry" />
        </mxCell>
        <mxCell id="kQcq3hz9DepAYZpIc8k_-29" value="Task_1" style="text;strokeColor=none;fillColor=none;align=left;verticalAlign=middle;spacingLeft=4;spacingRight=4;overflow=hidden;points=[[0,0.5],[1,0.5]];portConstraint=eastwest;rotatable=0;whiteSpace=wrap;html=1;" parent="kQcq3hz9DepAYZpIc8k_-28" vertex="1">
          <mxGeometry y="30" width="140" height="30" as="geometry" />
        </mxCell>
        <mxCell id="kQcq3hz9DepAYZpIc8k_-30" value="..." style="text;strokeColor=none;fillColor=none;align=left;verticalAlign=middle;spacingLeft=4;spacingRight=4;overflow=hidden;points=[[0,0.5],[1,0.5]];portConstraint=eastwest;rotatable=0;whiteSpace=wrap;html=1;" parent="kQcq3hz9DepAYZpIc8k_-28" vertex="1">
          <mxGeometry y="60" width="140" height="30" as="geometry" />
        </mxCell>
        <mxCell id="kQcq3hz9DepAYZpIc8k_-31" value="Task_2" style="text;strokeColor=none;fillColor=none;align=left;verticalAlign=middle;spacingLeft=4;spacingRight=4;overflow=hidden;points=[[0,0.5],[1,0.5]];portConstraint=eastwest;rotatable=0;whiteSpace=wrap;html=1;" parent="kQcq3hz9DepAYZpIc8k_-28" vertex="1">
          <mxGeometry y="90" width="140" height="30" as="geometry" />
        </mxCell>
        <mxCell id="kQcq3hz9DepAYZpIc8k_-32" value="QuestState_2" style="swimlane;fontStyle=0;childLayout=stackLayout;horizontal=1;startSize=30;horizontalStack=0;resizeParent=1;resizeParentMax=0;resizeLast=0;collapsible=1;marginBottom=0;whiteSpace=wrap;html=1;" parent="1" vertex="1">
          <mxGeometry x="900" y="240" width="140" height="120" as="geometry" />
        </mxCell>
        <mxCell id="kQcq3hz9DepAYZpIc8k_-59" style="edgeStyle=orthogonalEdgeStyle;rounded=0;orthogonalLoop=1;jettySize=auto;html=1;" parent="kQcq3hz9DepAYZpIc8k_-32" source="kQcq3hz9DepAYZpIc8k_-33" edge="1">
          <mxGeometry relative="1" as="geometry">
            <mxPoint x="270" y="45" as="targetPoint" />
          </mxGeometry>
        </mxCell>
        <mxCell id="kQcq3hz9DepAYZpIc8k_-33" value="Task_1" style="text;strokeColor=none;fillColor=none;align=left;verticalAlign=middle;spacingLeft=4;spacingRight=4;overflow=hidden;points=[[0,0.5],[1,0.5]];portConstraint=eastwest;rotatable=0;whiteSpace=wrap;html=1;" parent="kQcq3hz9DepAYZpIc8k_-32" vertex="1">
          <mxGeometry y="30" width="140" height="30" as="geometry" />
        </mxCell>
        <mxCell id="kQcq3hz9DepAYZpIc8k_-34" value="..." style="text;strokeColor=none;fillColor=none;align=left;verticalAlign=middle;spacingLeft=4;spacingRight=4;overflow=hidden;points=[[0,0.5],[1,0.5]];portConstraint=eastwest;rotatable=0;whiteSpace=wrap;html=1;" parent="kQcq3hz9DepAYZpIc8k_-32" vertex="1">
          <mxGeometry y="60" width="140" height="30" as="geometry" />
        </mxCell>
        <mxCell id="kQcq3hz9DepAYZpIc8k_-35" value="Task_2" style="text;strokeColor=none;fillColor=none;align=left;verticalAlign=middle;spacingLeft=4;spacingRight=4;overflow=hidden;points=[[0,0.5],[1,0.5]];portConstraint=eastwest;rotatable=0;whiteSpace=wrap;html=1;" parent="kQcq3hz9DepAYZpIc8k_-32" vertex="1">
          <mxGeometry y="90" width="140" height="30" as="geometry" />
        </mxCell>
        <mxCell id="kQcq3hz9DepAYZpIc8k_-36" value="QuestState_3" style="swimlane;fontStyle=0;childLayout=stackLayout;horizontal=1;startSize=30;horizontalStack=0;resizeParent=1;resizeParentMax=0;resizeLast=0;collapsible=1;marginBottom=0;whiteSpace=wrap;html=1;" parent="1" vertex="1">
          <mxGeometry x="900" y="440" width="140" height="120" as="geometry" />
        </mxCell>
        <mxCell id="kQcq3hz9DepAYZpIc8k_-37" value="Task_1" style="text;strokeColor=none;fillColor=none;align=left;verticalAlign=middle;spacingLeft=4;spacingRight=4;overflow=hidden;points=[[0,0.5],[1,0.5]];portConstraint=eastwest;rotatable=0;whiteSpace=wrap;html=1;" parent="kQcq3hz9DepAYZpIc8k_-36" vertex="1">
          <mxGeometry y="30" width="140" height="30" as="geometry" />
        </mxCell>
        <mxCell id="kQcq3hz9DepAYZpIc8k_-38" value="..." style="text;strokeColor=none;fillColor=none;align=left;verticalAlign=middle;spacingLeft=4;spacingRight=4;overflow=hidden;points=[[0,0.5],[1,0.5]];portConstraint=eastwest;rotatable=0;whiteSpace=wrap;html=1;" parent="kQcq3hz9DepAYZpIc8k_-36" vertex="1">
          <mxGeometry y="60" width="140" height="30" as="geometry" />
        </mxCell>
        <mxCell id="kQcq3hz9DepAYZpIc8k_-39" value="Task_2" style="text;strokeColor=none;fillColor=none;align=left;verticalAlign=middle;spacingLeft=4;spacingRight=4;overflow=hidden;points=[[0,0.5],[1,0.5]];portConstraint=eastwest;rotatable=0;whiteSpace=wrap;html=1;" parent="kQcq3hz9DepAYZpIc8k_-36" vertex="1">
          <mxGeometry y="90" width="140" height="30" as="geometry" />
        </mxCell>
        <mxCell id="kQcq3hz9DepAYZpIc8k_-40" value="QuestState_4" style="swimlane;fontStyle=0;childLayout=stackLayout;horizontal=1;startSize=30;horizontalStack=0;resizeParent=1;resizeParentMax=0;resizeLast=0;collapsible=1;marginBottom=0;whiteSpace=wrap;html=1;" parent="1" vertex="1">
          <mxGeometry x="900" y="620" width="140" height="120" as="geometry" />
        </mxCell>
        <mxCell id="kQcq3hz9DepAYZpIc8k_-41" value="Task_1" style="text;strokeColor=none;fillColor=none;align=left;verticalAlign=middle;spacingLeft=4;spacingRight=4;overflow=hidden;points=[[0,0.5],[1,0.5]];portConstraint=eastwest;rotatable=0;whiteSpace=wrap;html=1;" parent="kQcq3hz9DepAYZpIc8k_-40" vertex="1">
          <mxGeometry y="30" width="140" height="30" as="geometry" />
        </mxCell>
        <mxCell id="kQcq3hz9DepAYZpIc8k_-42" value="..." style="text;strokeColor=none;fillColor=none;align=left;verticalAlign=middle;spacingLeft=4;spacingRight=4;overflow=hidden;points=[[0,0.5],[1,0.5]];portConstraint=eastwest;rotatable=0;whiteSpace=wrap;html=1;" parent="kQcq3hz9DepAYZpIc8k_-40" vertex="1">
          <mxGeometry y="60" width="140" height="30" as="geometry" />
        </mxCell>
        <mxCell id="kQcq3hz9DepAYZpIc8k_-43" value="Task_2" style="text;strokeColor=none;fillColor=none;align=left;verticalAlign=middle;spacingLeft=4;spacingRight=4;overflow=hidden;points=[[0,0.5],[1,0.5]];portConstraint=eastwest;rotatable=0;whiteSpace=wrap;html=1;" parent="kQcq3hz9DepAYZpIc8k_-40" vertex="1">
          <mxGeometry y="90" width="140" height="30" as="geometry" />
        </mxCell>
        <mxCell id="kQcq3hz9DepAYZpIc8k_-46" style="edgeStyle=orthogonalEdgeStyle;rounded=0;orthogonalLoop=1;jettySize=auto;html=1;exitX=1;exitY=0.5;exitDx=0;exitDy=0;entryX=0.005;entryY=-0.067;entryDx=0;entryDy=0;entryPerimeter=0;" parent="1" source="kQcq3hz9DepAYZpIc8k_-49" target="kQcq3hz9DepAYZpIc8k_-34" edge="1">
          <mxGeometry relative="1" as="geometry">
            <Array as="points">
              <mxPoint x="710" y="510" />
              <mxPoint x="710" y="298" />
            </Array>
          </mxGeometry>
        </mxCell>
        <mxCell id="kQcq3hz9DepAYZpIc8k_-51" value="" style="edgeStyle=orthogonalEdgeStyle;rounded=0;orthogonalLoop=1;jettySize=auto;html=1;exitX=1;exitY=0.5;exitDx=0;exitDy=0;entryX=0;entryY=0.5;entryDx=0;entryDy=0;" parent="1" source="kQcq3hz9DepAYZpIc8k_-29" target="kQcq3hz9DepAYZpIc8k_-49" edge="1">
          <mxGeometry relative="1" as="geometry">
            <mxPoint x="464" y="510" as="sourcePoint" />
            <mxPoint x="851" y="298" as="targetPoint" />
          </mxGeometry>
        </mxCell>
        <mxCell id="kQcq3hz9DepAYZpIc8k_-53" style="edgeStyle=orthogonalEdgeStyle;rounded=0;orthogonalLoop=1;jettySize=auto;html=1;entryX=0;entryY=0.5;entryDx=0;entryDy=0;" parent="1" target="kQcq3hz9DepAYZpIc8k_-42" edge="1">
          <mxGeometry relative="1" as="geometry">
            <mxPoint x="750" y="580" as="targetPoint" />
            <mxPoint x="710" y="510" as="sourcePoint" />
          </mxGeometry>
        </mxCell>
        <mxCell id="kQcq3hz9DepAYZpIc8k_-49" value="QuestBench" style="html=1;whiteSpace=wrap;" parent="1" vertex="1">
          <mxGeometry x="470" y="485" width="110" height="50" as="geometry" />
        </mxCell>
        <mxCell id="kQcq3hz9DepAYZpIc8k_-52" style="edgeStyle=orthogonalEdgeStyle;rounded=0;orthogonalLoop=1;jettySize=auto;html=1;" parent="1" source="kQcq3hz9DepAYZpIc8k_-49" edge="1">
          <mxGeometry relative="1" as="geometry">
            <mxPoint x="900" y="510" as="targetPoint" />
          </mxGeometry>
        </mxCell>
        <mxCell id="kQcq3hz9DepAYZpIc8k_-55" value="sucecess" style="text;align=center;fontStyle=1;verticalAlign=middle;spacingLeft=3;spacingRight=3;strokeColor=none;rotatable=0;points=[[0,0.5],[1,0.5]];portConstraint=eastwest;html=1;" parent="1" vertex="1">
          <mxGeometry x="770" y="260" width="80" height="26" as="geometry" />
        </mxCell>
        <mxCell id="kQcq3hz9DepAYZpIc8k_-56" value="Cancel" style="text;align=center;fontStyle=1;verticalAlign=middle;spacingLeft=3;spacingRight=3;strokeColor=none;rotatable=0;points=[[0,0.5],[1,0.5]];portConstraint=eastwest;html=1;" parent="1" vertex="1">
          <mxGeometry x="760" y="667" width="80" height="26" as="geometry" />
        </mxCell>
        <mxCell id="kQcq3hz9DepAYZpIc8k_-57" value="fail" style="text;align=center;fontStyle=1;verticalAlign=middle;spacingLeft=3;spacingRight=3;strokeColor=none;rotatable=0;points=[[0,0.5],[1,0.5]];portConstraint=eastwest;html=1;" parent="1" vertex="1">
          <mxGeometry x="770" y="470" width="80" height="26" as="geometry" />
        </mxCell>
        <mxCell id="kQcq3hz9DepAYZpIc8k_-60" value="&lt;font style=&quot;font-size: 22px;&quot;&gt;. . .&lt;/font&gt;" style="text;align=center;fontStyle=1;verticalAlign=middle;spacingLeft=3;spacingRight=3;strokeColor=none;rotatable=0;points=[[0,0.5],[1,0.5]];portConstraint=eastwest;html=1;" parent="1" vertex="1">
          <mxGeometry x="1170" y="240" width="170" height="88" as="geometry" />
        </mxCell>
        <mxCell id="kQcq3hz9DepAYZpIc8k_-61" style="edgeStyle=orthogonalEdgeStyle;rounded=0;orthogonalLoop=1;jettySize=auto;html=1;" parent="1" edge="1">
          <mxGeometry relative="1" as="geometry">
            <mxPoint x="1170" y="503" as="targetPoint" />
            <mxPoint x="1040" y="503" as="sourcePoint" />
          </mxGeometry>
        </mxCell>
        <mxCell id="kQcq3hz9DepAYZpIc8k_-63" style="edgeStyle=orthogonalEdgeStyle;rounded=0;orthogonalLoop=1;jettySize=auto;html=1;" parent="1" edge="1">
          <mxGeometry relative="1" as="geometry">
            <mxPoint x="1170" y="692" as="targetPoint" />
            <mxPoint x="1040" y="692" as="sourcePoint" />
          </mxGeometry>
        </mxCell>
        <mxCell id="kQcq3hz9DepAYZpIc8k_-79" style="edgeStyle=orthogonalEdgeStyle;rounded=0;orthogonalLoop=1;jettySize=auto;html=1;exitX=1;exitY=0.5;exitDx=0;exitDy=0;entryX=0.5;entryY=0;entryDx=0;entryDy=0;" parent="1" source="kQcq3hz9DepAYZpIc8k_-65" target="kQcq3hz9DepAYZpIc8k_-77" edge="1">
          <mxGeometry relative="1" as="geometry" />
        </mxCell>
        <mxCell id="kQcq3hz9DepAYZpIc8k_-65" value="QuestState_End" style="html=1;whiteSpace=wrap;" parent="1" vertex="1">
          <mxGeometry x="1430" y="260" width="110" height="50" as="geometry" />
        </mxCell>
        <mxCell id="kQcq3hz9DepAYZpIc8k_-66" value="&lt;font style=&quot;font-size: 22px;&quot;&gt;. . .&lt;/font&gt;" style="text;align=center;fontStyle=1;verticalAlign=middle;spacingLeft=3;spacingRight=3;strokeColor=none;rotatable=0;points=[[0,0.5],[1,0.5]];portConstraint=eastwest;html=1;" parent="1" vertex="1">
          <mxGeometry x="1170" y="456" width="170" height="88" as="geometry" />
        </mxCell>
        <mxCell id="kQcq3hz9DepAYZpIc8k_-67" value="&lt;font style=&quot;font-size: 22px;&quot;&gt;. . .&lt;/font&gt;" style="text;align=center;fontStyle=1;verticalAlign=middle;spacingLeft=3;spacingRight=3;strokeColor=none;rotatable=0;points=[[0,0.5],[1,0.5]];portConstraint=eastwest;html=1;" parent="1" vertex="1">
          <mxGeometry x="1170" y="650" width="170" height="88" as="geometry" />
        </mxCell>
        <mxCell id="kQcq3hz9DepAYZpIc8k_-68" style="edgeStyle=orthogonalEdgeStyle;rounded=0;orthogonalLoop=1;jettySize=auto;html=1;" parent="1" edge="1">
          <mxGeometry relative="1" as="geometry">
            <mxPoint x="1430" y="286" as="targetPoint" />
            <mxPoint x="1340" y="286" as="sourcePoint" />
          </mxGeometry>
        </mxCell>
        <mxCell id="kQcq3hz9DepAYZpIc8k_-80" style="edgeStyle=orthogonalEdgeStyle;rounded=0;orthogonalLoop=1;jettySize=auto;html=1;exitX=1;exitY=0.5;exitDx=0;exitDy=0;" parent="1" source="kQcq3hz9DepAYZpIc8k_-70" edge="1">
          <mxGeometry relative="1" as="geometry">
            <mxPoint x="1650" y="500" as="targetPoint" />
          </mxGeometry>
        </mxCell>
        <mxCell id="kQcq3hz9DepAYZpIc8k_-70" value="QuestState_End" style="html=1;whiteSpace=wrap;" parent="1" vertex="1">
          <mxGeometry x="1430" y="475" width="110" height="50" as="geometry" />
        </mxCell>
        <mxCell id="kQcq3hz9DepAYZpIc8k_-71" style="edgeStyle=orthogonalEdgeStyle;rounded=0;orthogonalLoop=1;jettySize=auto;html=1;" parent="1" edge="1">
          <mxGeometry relative="1" as="geometry">
            <mxPoint x="1430" y="501" as="targetPoint" />
            <mxPoint x="1340" y="501" as="sourcePoint" />
          </mxGeometry>
        </mxCell>
        <mxCell id="kQcq3hz9DepAYZpIc8k_-81" style="edgeStyle=orthogonalEdgeStyle;rounded=0;orthogonalLoop=1;jettySize=auto;html=1;exitX=1;exitY=0.5;exitDx=0;exitDy=0;entryX=0.5;entryY=1;entryDx=0;entryDy=0;" parent="1" source="kQcq3hz9DepAYZpIc8k_-72" target="kQcq3hz9DepAYZpIc8k_-77" edge="1">
          <mxGeometry relative="1" as="geometry" />
        </mxCell>
        <mxCell id="kQcq3hz9DepAYZpIc8k_-72" value="QuestState_End" style="html=1;whiteSpace=wrap;" parent="1" vertex="1">
          <mxGeometry x="1430" y="669" width="110" height="50" as="geometry" />
        </mxCell>
        <mxCell id="kQcq3hz9DepAYZpIc8k_-73" style="edgeStyle=orthogonalEdgeStyle;rounded=0;orthogonalLoop=1;jettySize=auto;html=1;" parent="1" edge="1">
          <mxGeometry relative="1" as="geometry">
            <mxPoint x="1430" y="695" as="targetPoint" />
            <mxPoint x="1340" y="695" as="sourcePoint" />
          </mxGeometry>
        </mxCell>
        <mxCell id="kQcq3hz9DepAYZpIc8k_-97" style="edgeStyle=orthogonalEdgeStyle;rounded=0;orthogonalLoop=1;jettySize=auto;html=1;entryX=0;entryY=0.5;entryDx=0;entryDy=0;" parent="1" source="kQcq3hz9DepAYZpIc8k_-75" target="kQcq3hz9DepAYZpIc8k_-29" edge="1">
          <mxGeometry relative="1" as="geometry" />
        </mxCell>
        <mxCell id="kQcq3hz9DepAYZpIc8k_-75" value="Start" style="html=1;whiteSpace=wrap;" parent="1" vertex="1">
          <mxGeometry x="90" y="485" width="110" height="50" as="geometry" />
        </mxCell>
        <mxCell id="kQcq3hz9DepAYZpIc8k_-77" value="End" style="html=1;whiteSpace=wrap;" parent="1" vertex="1">
          <mxGeometry x="1654" y="475" width="110" height="50" as="geometry" />
        </mxCell>
        <mxCell id="kQcq3hz9DepAYZpIc8k_-82" value="" style="shape=curlyBracket;whiteSpace=wrap;html=1;rounded=1;labelPosition=left;verticalLabelPosition=middle;align=right;verticalAlign=middle;" parent="1" vertex="1">
          <mxGeometry x="10" y="70" width="20" height="890" as="geometry" />
        </mxCell>
        <mxCell id="kQcq3hz9DepAYZpIc8k_-83" value="" style="shape=curlyBracket;whiteSpace=wrap;html=1;rounded=1;flipH=1;labelPosition=right;verticalLabelPosition=middle;align=left;verticalAlign=middle;" parent="1" vertex="1">
          <mxGeometry x="1780" y="60" width="20" height="895" as="geometry" />
        </mxCell>
        <mxCell id="kQcq3hz9DepAYZpIc8k_-85" value="&lt;font style=&quot;font-size: 24px;&quot;&gt;One Quest Flow&lt;/font&gt;" style="text;align=center;fontStyle=1;verticalAlign=middle;spacingLeft=3;spacingRight=3;strokeColor=none;rotatable=0;points=[[0,0.5],[1,0.5]];portConstraint=eastwest;html=1;" parent="1" vertex="1">
          <mxGeometry x="50" y="60" width="270" height="180" as="geometry" />
        </mxCell>
        <mxCell id="yesNe86JXNLRwAGhctx_-6" style="edgeStyle=none;curved=1;rounded=0;orthogonalLoop=1;jettySize=auto;html=1;exitX=1;exitY=0.5;exitDx=0;exitDy=0;entryX=0;entryY=0.5;entryDx=0;entryDy=0;fontSize=12;startSize=8;endSize=8;" edge="1" parent="1" source="kQcq3hz9DepAYZpIc8k_-87" target="yesNe86JXNLRwAGhctx_-2">
          <mxGeometry relative="1" as="geometry" />
        </mxCell>
        <mxCell id="yesNe86JXNLRwAGhctx_-7" style="edgeStyle=none;curved=1;rounded=0;orthogonalLoop=1;jettySize=auto;html=1;exitX=1;exitY=0.5;exitDx=0;exitDy=0;entryX=0;entryY=0.5;entryDx=0;entryDy=0;fontSize=12;startSize=8;endSize=8;" edge="1" parent="1" source="kQcq3hz9DepAYZpIc8k_-87" target="yesNe86JXNLRwAGhctx_-3">
          <mxGeometry relative="1" as="geometry" />
        </mxCell>
        <mxCell id="yesNe86JXNLRwAGhctx_-8" style="edgeStyle=none;curved=1;rounded=0;orthogonalLoop=1;jettySize=auto;html=1;exitX=1;exitY=0.5;exitDx=0;exitDy=0;entryX=0;entryY=0.5;entryDx=0;entryDy=0;fontSize=12;startSize=8;endSize=8;" edge="1" parent="1" source="kQcq3hz9DepAYZpIc8k_-87" target="yesNe86JXNLRwAGhctx_-5">
          <mxGeometry relative="1" as="geometry" />
        </mxCell>
        <mxCell id="kQcq3hz9DepAYZpIc8k_-87" value="UQuestFlow:任务实例" style="html=1;whiteSpace=wrap;" parent="1" vertex="1">
          <mxGeometry x="60" y="-210" width="330" height="50" as="geometry" />
        </mxCell>
        <mxCell id="kQcq3hz9DepAYZpIc8k_-88" value="UQuestFlowComponent:控制器组件（客户端）" style="html=1;whiteSpace=wrap;" parent="1" vertex="1">
          <mxGeometry x="10" y="-260" width="310" height="50" as="geometry" />
        </mxCell>
        <mxCell id="kQcq3hz9DepAYZpIc8k_-89" value="UQuestCondition：下一个任务状态判断" style="html=1;whiteSpace=wrap;" parent="1" vertex="1">
          <mxGeometry x="140" y="-60" width="370" height="50" as="geometry" />
        </mxCell>
        <mxCell id="kQcq3hz9DepAYZpIc8k_-90" value="UQuestTask：任务内容" style="html=1;whiteSpace=wrap;" parent="1" vertex="1">
          <mxGeometry x="140" y="-110" width="370" height="50" as="geometry" />
        </mxCell>
        <mxCell id="yesNe86JXNLRwAGhctx_-12" style="edgeStyle=none;curved=1;rounded=0;orthogonalLoop=1;jettySize=auto;html=1;exitX=1;exitY=0.5;exitDx=0;exitDy=0;entryX=0;entryY=0.5;entryDx=0;entryDy=0;fontSize=12;startSize=8;endSize=8;" edge="1" parent="1" source="kQcq3hz9DepAYZpIc8k_-91" target="yesNe86JXNLRwAGhctx_-9">
          <mxGeometry relative="1" as="geometry" />
        </mxCell>
        <mxCell id="yesNe86JXNLRwAGhctx_-13" style="edgeStyle=none;curved=1;rounded=0;orthogonalLoop=1;jettySize=auto;html=1;exitX=1;exitY=0.5;exitDx=0;exitDy=0;fontSize=12;startSize=8;endSize=8;" edge="1" parent="1" source="kQcq3hz9DepAYZpIc8k_-91" target="yesNe86JXNLRwAGhctx_-10">
          <mxGeometry relative="1" as="geometry" />
        </mxCell>
        <mxCell id="yesNe86JXNLRwAGhctx_-14" style="edgeStyle=none;curved=1;rounded=0;orthogonalLoop=1;jettySize=auto;html=1;exitX=1;exitY=0.5;exitDx=0;exitDy=0;fontSize=12;startSize=8;endSize=8;" edge="1" parent="1" source="kQcq3hz9DepAYZpIc8k_-91" target="yesNe86JXNLRwAGhctx_-11">
          <mxGeometry relative="1" as="geometry" />
        </mxCell>
        <mxCell id="kQcq3hz9DepAYZpIc8k_-91" value="UQuest：任务" style="html=1;whiteSpace=wrap;" parent="1" vertex="1">
          <mxGeometry x="100" y="-160" width="370" height="50" as="geometry" />
        </mxCell>
        <mxCell id="yesNe86JXNLRwAGhctx_-2" value="Begin()" style="html=1;whiteSpace=wrap;fontSize=16;" vertex="1" parent="1">
          <mxGeometry x="680" y="-390" width="110" height="50" as="geometry" />
        </mxCell>
        <mxCell id="yesNe86JXNLRwAGhctx_-3" value="End()" style="html=1;whiteSpace=wrap;fontSize=16;" vertex="1" parent="1">
          <mxGeometry x="680" y="-330" width="110" height="50" as="geometry" />
        </mxCell>
        <mxCell id="yesNe86JXNLRwAGhctx_-4" value="EStateNodeType&lt;br&gt;{Regular,&lt;br&gt;Success,&lt;br&gt;Failure,}" style="html=1;whiteSpace=wrap;fontSize=16;" vertex="1" parent="1">
          <mxGeometry x="273.5" y="-520" width="147" height="110" as="geometry" />
        </mxCell>
        <mxCell id="yesNe86JXNLRwAGhctx_-5" value="Tick()" style="html=1;whiteSpace=wrap;fontSize=16;" vertex="1" parent="1">
          <mxGeometry x="680" y="-270" width="110" height="50" as="geometry" />
        </mxCell>
        <mxCell id="yesNe86JXNLRwAGhctx_-9" value="()" style="html=1;whiteSpace=wrap;fontSize=16;" vertex="1" parent="1">
          <mxGeometry x="860" y="-250" width="110" height="50" as="geometry" />
        </mxCell>
        <mxCell id="yesNe86JXNLRwAGhctx_-10" value="Out()" style="html=1;whiteSpace=wrap;fontSize=16;" vertex="1" parent="1">
          <mxGeometry x="860" y="-190" width="110" height="50" as="geometry" />
        </mxCell>
        <mxCell id="yesNe86JXNLRwAGhctx_-11" value="Tick()" style="html=1;whiteSpace=wrap;fontSize=16;" vertex="1" parent="1">
          <mxGeometry x="860" y="-130" width="110" height="50" as="geometry" />
        </mxCell>
        <mxCell id="yesNe86JXNLRwAGhctx_-15" value="QuestFlow" style="html=1;whiteSpace=wrap;fontSize=16;" vertex="1" parent="1">
          <mxGeometry x="230" y="-1100" width="110" height="50" as="geometry" />
        </mxCell>
        <mxCell id="yesNe86JXNLRwAGhctx_-16" value="QuestState" style="html=1;whiteSpace=wrap;fontSize=16;" vertex="1" parent="1">
          <mxGeometry x="343.5" y="-930" width="110" height="50" as="geometry" />
        </mxCell>
        <mxCell id="yesNe86JXNLRwAGhctx_-17" value="TaskList" style="html=1;whiteSpace=wrap;fontSize=16;" vertex="1" parent="1">
          <mxGeometry x="343.5" y="-880" width="110" height="50" as="geometry" />
        </mxCell>
        <mxCell id="yesNe86JXNLRwAGhctx_-20" value="Condition" style="html=1;whiteSpace=wrap;fontSize=16;" vertex="1" parent="1">
          <mxGeometry x="100" y="-770" width="110" height="50" as="geometry" />
        </mxCell>
        <mxCell id="yesNe86JXNLRwAGhctx_-21" value="Quest" style="swimlane;fontStyle=0;childLayout=stackLayout;horizontal=1;startSize=30;horizontalStack=0;resizeParent=1;resizeParentMax=0;resizeLast=0;collapsible=1;marginBottom=0;whiteSpace=wrap;html=1;" vertex="1" parent="1">
          <mxGeometry x="273.5" y="-1050" width="140" height="120" as="geometry" />
        </mxCell>
        <mxCell id="yesNe86JXNLRwAGhctx_-23" value="EnterEvent" style="text;strokeColor=none;fillColor=none;align=left;verticalAlign=middle;spacingLeft=4;spacingRight=4;overflow=hidden;points=[[0,0.5],[1,0.5]];portConstraint=eastwest;rotatable=0;whiteSpace=wrap;html=1;" vertex="1" parent="yesNe86JXNLRwAGhctx_-21">
          <mxGeometry y="30" width="140" height="30" as="geometry" />
        </mxCell>
        <mxCell id="yesNe86JXNLRwAGhctx_-24" value="TickEvent" style="text;strokeColor=none;fillColor=none;align=left;verticalAlign=middle;spacingLeft=4;spacingRight=4;overflow=hidden;points=[[0,0.5],[1,0.5]];portConstraint=eastwest;rotatable=0;whiteSpace=wrap;html=1;" vertex="1" parent="yesNe86JXNLRwAGhctx_-21">
          <mxGeometry y="60" width="140" height="30" as="geometry" />
        </mxCell>
        <mxCell id="yesNe86JXNLRwAGhctx_-25" value="OutEvent" style="text;strokeColor=none;fillColor=none;align=left;verticalAlign=middle;spacingLeft=4;spacingRight=4;overflow=hidden;points=[[0,0.5],[1,0.5]];portConstraint=eastwest;rotatable=0;whiteSpace=wrap;html=1;" vertex="1" parent="yesNe86JXNLRwAGhctx_-21">
          <mxGeometry y="90" width="140" height="30" as="geometry" />
        </mxCell>
      </root>
    </mxGraphModel>
  </diagram>
</mxfile>
